<?xml version="1.0" encoding="utf-8"?>
<!-- Generator: Adobe Illustrator 24.0.0, SVG Export Plug-In . SVG Version: 6.00 Build 0)  -->
<svg version="1.1" id="Layer_1" xmlns="http://www.w3.org/2000/svg" xmlns:xlink="http://www.w3.org/1999/xlink" x="0px" y="0px"
	 viewBox="0 0 1440 320" style="enable-background:new 0 0 1440 320;" xml:space="preserve">
<style type="text/css">
	.st0{fill:#FFD700;}
</style>
<path class="st0" d="M0,64l30-5.3C60,53,120,43,180,48s120,27,180,37.3c60.6,10.4,107.2,9.9,180,10.7c130.7,1.5,130.3-10.9,181-0.1
	c93.4,19.9,94,61.8,179,74.8c41.1,6.3,91,10.2,180-21.4c60-21.3,120-53.3,180-32c60,21.7,120,95.7,150,133.4l30,37.3V0h-30
	c-30,0-90,0-150,0s-120,0-180,0S960,0,900,0S780,0,720,0S600,0,540,0S420,0,360,0S240,0,180,0S60,0,30,0H0V64z"/>
</svg>
